<svg width="165" height="144" viewBox="0 0 165 144" fill="none" xmlns="http://www.w3.org/2000/svg">
<g clip-path="url(#clip0_4_2)">
<path d="M115.263 3.32493C113.551 16.3425 111.76 29.3556 110.035 42.3732C109.833 43.8857 109.146 44.578 107.602 44.5428C105.186 44.4898 102.765 44.5295 99.2271 44.5295C94.3291 43.211 89.726 45.632 85.2901 49.561C80.5241 53.7767 75.2345 57.4016 70.1517 61.2513C69.3771 61.8422 68.5542 62.8344 67.4496 62.0274C66.4155 61.2733 66.9171 60.1753 67.1548 59.1875C67.7269 56.8327 68.2286 54.4603 68.8931 52.1363C69.3331 50.5929 68.8139 50.1872 67.3396 50.2357C64.9984 50.3107 62.6529 50.249 60.3073 50.249C58.7186 50.2534 57.9925 49.7374 57.6405 47.8986C56.0958 39.9081 54.1595 31.9926 52.5664 24.011C51.5543 18.9178 50.5025 13.8377 49.3715 8.77096C48.9623 6.93651 50.5333 6.79539 51.7347 6.65869C57.4072 6.00164 63.0841 5.42397 68.7566 4.8066C83.1557 3.24556 97.5548 1.69774 111.95 0.110232C115.162 -0.246957 115.686 0.114642 115.263 3.32493Z" fill="url(#paint0_linear_4_2)"/>
<path d="M108.592 135.983C106.383 134.052 104.125 132.169 101.771 130.422C100.442 129.435 100.336 128.575 101.089 127.155C103.905 121.837 105.018 116.117 104.649 110.129C104.446 106.901 104.108 103.664 102.294 100.842C100.886 98.6414 98.2722 97.9094 95.6978 98.9192C93.7218 99.6954 93.0397 101.278 93.5194 104.057C93.7702 105.503 94.1047 106.932 94.3335 108.383C94.9848 112.603 94.4436 116.717 93.0793 120.734C92.8725 121.347 92.7229 122.423 91.6623 121.506C88.2386 118.565 84.8368 115.597 81.3339 112.559C83.1029 111.346 84.5596 110.133 85.8226 108.687C91.5479 102.121 90.6721 92.3002 83.8731 87.5068C80.1149 84.8522 75.8374 84.5523 71.4455 85.033C61.2138 86.1442 56.2895 95.925 59.7132 103.417C60.9938 106.217 59.9772 107.298 58.0849 108.59C57.9045 108.713 57.7153 108.824 57.5304 108.943C52.1264 113.859 49.2307 119.654 50.6301 127.234C52.5577 137.65 62.1864 143.356 71.3839 143.929C79.2171 144.423 86.2671 142.289 92.6657 137.822C93.4226 136.856 94.2059 136.658 95.1301 137.65C96.0014 138.585 96.93 139.467 97.8365 140.371H97.8805C99.9444 141.892 101.938 143.511 104.631 143.85C106.92 144.137 109.446 143.096 110.321 141.367C111.219 139.59 110.735 137.853 108.592 135.983ZM74.3807 93.8921C77.0432 93.8569 78.8915 95.9206 78.9443 99.81C79.0323 101.596 77.8177 103.585 75.9474 105.274C75.0056 106.129 74.1431 106.257 73.0913 105.38C71.1462 103.752 69.9096 101.786 69.8128 99.2059C69.694 96.1632 71.6391 93.9318 74.3807 93.8921ZM71.2739 133.809C66.7323 132.764 63.3658 130.153 62.2216 125.528C61.1346 121.136 62.5208 117.295 65.9534 114.261C66.6619 113.635 67.256 113.216 68.189 114.049C74.1739 119.416 80.2029 124.734 86.3111 130.153C81.6287 133.28 76.8011 135.075 71.2739 133.809Z" fill="url(#paint1_linear_4_2)"/>
<path d="M164.578 139.409C163.812 142.58 162.232 143.749 159.328 143.608C156.692 143.484 155.054 142.029 154.636 138.999C154.02 134.559 153.598 130.114 151.851 125.907C148.563 117.978 142.732 113.335 134.296 111.963C131.497 111.509 131.365 111.646 131.365 114.609C131.357 122.247 131.383 129.889 131.348 137.526C131.326 142.064 129.183 143.947 124.703 143.555C123.07 143.409 122.014 142.611 121.455 141.085C121.046 139.974 120.799 138.845 120.799 137.646C120.813 122.075 120.83 106.5 120.791 90.9288C120.777 85.7032 123.928 84.1907 128.025 85.4475C130.16 86.1001 131.269 87.9213 131.304 90.6201C131.348 94.0024 131.348 97.3802 131.295 100.758C131.277 101.98 131.559 102.601 132.945 102.734C135.859 103.007 138.653 103.907 141.496 101.909C145.267 99.2632 148.753 96.5159 150.231 91.9254C150.592 90.8053 150.927 89.6808 151.34 88.5784C152.335 85.9414 154.87 84.5303 157.453 85.1388C160.001 85.7429 161.647 87.9478 161.361 90.7304C160.74 96.8511 157.079 101.199 152.687 105.036C151.547 106.032 150.156 106.733 148.603 107.748C156.507 112.342 161.013 119.222 163.508 127.494C164.67 131.348 165.559 135.344 164.578 139.409Z" fill="url(#paint2_linear_4_2)"/>
<path d="M40.8693 114.539C40.8649 122.251 40.8737 129.964 40.8605 137.676C40.8517 140.724 39.7604 142.514 37.5204 143.268C33.5334 144.622 30.3517 142.461 30.3165 138.228C30.2548 130.369 30.2196 122.507 30.3473 114.649C30.3781 112.541 29.6651 112.056 27.72 112.104C22.8089 112.219 17.8933 112.21 12.9821 112.1C11.1734 112.06 10.5925 112.598 10.6145 114.45C10.7025 122.308 10.6893 130.171 10.6145 138.029C10.5749 141.76 8.45816 143.766 5.02561 143.612C1.98472 143.475 0.123222 141.486 0.0484102 138.038C-0.0396039 134.003 0.0176053 129.959 0.0176053 125.92C0.0176053 114.389 0.00440315 102.853 0.0264067 91.3213C0.0308074 87.7494 1.44343 85.6724 4.11906 85.1123C7.57802 84.3847 10.4297 86.5191 10.5793 90.1659C10.7289 93.7598 10.7113 97.3626 10.6233 100.961C10.5837 102.54 10.9578 103.153 12.6784 103.113C17.8801 103.003 23.0905 102.998 28.2921 103.113C30.0348 103.153 30.3693 102.496 30.3253 100.939C30.2284 97.5654 30.268 94.1832 30.2989 90.8053C30.3341 86.8718 31.9051 85.0638 35.2628 85.0153C38.5634 84.9668 40.8341 87.2952 40.8561 90.9597C40.9045 98.8178 40.8693 106.68 40.8693 114.539Z" fill="url(#paint3_linear_4_2)"/>
</g>
<defs>
<linearGradient id="paint0_linear_4_2" x1="82.3475" y1="-0.000946045" x2="82.3475" y2="62.3309" gradientUnits="userSpaceOnUse">
<stop stop-color="#4B3BE1"/>
<stop offset="1" stop-color="#6356E5"/>
</linearGradient>
<linearGradient id="paint1_linear_4_2" x1="80.5148" y1="84.8434" x2="80.5148" y2="143.999" gradientUnits="userSpaceOnUse">
<stop stop-color="#4B3BE1"/>
<stop offset="1" stop-color="#6356E5"/>
</linearGradient>
<linearGradient id="paint2_linear_4_2" x1="142.895" y1="84.9984" x2="142.895" y2="143.619" gradientUnits="userSpaceOnUse">
<stop stop-color="#4B3BE1"/>
<stop offset="1" stop-color="#6356E5"/>
</linearGradient>
<linearGradient id="paint3_linear_4_2" x1="20.4405" y1="84.9707" x2="20.4405" y2="143.67" gradientUnits="userSpaceOnUse">
<stop stop-color="#4B3BE1"/>
<stop offset="1" stop-color="#6356E5"/>
</linearGradient>
<clipPath id="clip0_4_2">
<rect width="165" height="144" fill="white"/>
</clipPath>
</defs>
</svg>
